<?xml version="1.0" encoding="UTF-8"?>
<svg id="Layer_1" data-name="Layer 1" xmlns="http://www.w3.org/2000/svg" viewBox="0 0 1024 1024">
  <defs>
    <style>
      .cls-1 {
        font-family: LireQ-Regular, 'Lire Q';
        font-size: 172px;
      }

      .cls-1, .cls-2 {
        fill: #c1c1c1;
      }

      .cls-3 {
        fill: #f4f2f2;
      }
    </style>
  </defs>
  <rect class="cls-3" width="1024" height="1024" rx="48.59" ry="48.59"/>
  <g>
    <g>
      <path class="cls-2" d="M315.97,640.65l-71.97-7.84h78.42l28.52-34.66,58.43,52.87,106.96-187.78h138.07l65.72-85.1-21.16-23.66,32.66,8.77,54.6-70.7C509.26,201.57,38.43,334.88,53.22,549.44c7.24,105.05,85.73,165.85,172.37,201.06l90.38-109.85Z"/>
      <path class="cls-2" d="M976.35,475.56c-16.1-72.05-64.1-123.78-130.3-158.11l-174.56,188.89-133.91-9.02-54.72,78.37,61.53,57.11-72.93-40.79-59.28,84.9-58.33-43.06-99.49,127.34c105.11,35.72,211.99,37.58,211.99,37.58l28.49,169.31,162.4-209.32s361.25-94.59,319.11-283.2Z"/>
    </g>
    <ellipse class="cls-3" cx="293.22" cy="534.33" rx="73.59" ry="79.51"/>
    <path class="cls-3" d="M542.57,466.03c-11-7.07-23.81-11.21-37.54-11.21-40.64,0-73.59,35.6-73.59,79.51,0,19.53,6.55,37.39,17.36,51.23l68.09-119.53h25.68Z"/>
    <path class="cls-3" d="M483.42,578.48l36.36,33.75c33.57-7.38,58.84-39.45,58.84-77.9,0-11.36-2.24-22.14-6.21-31.91l-34.26-2.31-54.72,78.37Z"/>
    <path class="cls-3" d="M466.86,602.2c11.14,7.33,24.18,11.63,38.17,11.63.31,0,.61-.05.91-.05l-33.92-18.97-5.16,7.39Z"/>
    <path class="cls-3" d="M721.98,455.1l-49.93,54.03-24.41-1.64c-2.79,8.4-4.39,17.41-4.39,26.84,0,43.91,32.95,79.51,73.59,79.51s73.59-35.6,73.59-79.51-30.21-76.36-68.45-79.23Z"/>
    <polygon class="cls-3" points="270.62 716.1 278.51 697.82 349.58 722.2 270.62 716.1"/>
    <polygon class="cls-3" points="317.41 300.27 339.74 311.87 343.61 325.8 365.09 325.8 376.68 354.1 369.38 317.45 349.19 317.45 349.19 304.45 337.17 287.28 317.41 300.27"/>
    <polygon class="cls-3" points="576.24 642.77 644.35 727.45 695.11 705.19 776.97 795.13 777.33 755.23 857.43 827.67 854.1 882.4 793.13 796.69 784.77 835.87 702.63 725.41 642.64 741.36 576.24 642.77"/>
    <polygon class="cls-3" points="88.17 693.48 148.45 642.77 118.31 697.82 88.17 693.48"/>
    <polygon class="cls-3" points="929.57 354.1 901.57 392.43 941.16 373.27 929.57 354.1"/>
  </g>
  <text class="cls-1" transform="translate(73.47 189.94)"><tspan x="0" y="0">DENARRATOR</tspan></text>
</svg>