<?xml version="1.0" encoding="UTF-8"?>
<svg id="Layer_2" data-name="Layer 2" xmlns="http://www.w3.org/2000/svg" viewBox="0 0 158.31 113.22">
  <defs>
    <style>
      .cls-1 {
        fill: #bf7c7c;
      }

      .cls-2 {
        fill: #c1c1c1;
      }

      .cls-3 {
        fill: #c4a180;
      }
    </style>
  </defs>
  <g id="Layer_1-2" data-name="Layer 1">
    <g id="kill_button">
      <path id="kill_active" class="cls-1" d="M0,2.1v109.01c0,1.16.94,2.1,2.1,2.1h154.1c1.16,0,2.1-.94,2.1-2.1V2.1c0-1.16-.94-2.1-2.1-2.1H2.1C.94,0,0,.94,0,2.1ZM136.24,55.12v23.85c0,1.16-.94,2.1-2.1,2.1h-18.82c-1.16,0-2.1-.94-2.1-2.1v-21.75c0-1.16-.94-2.1-2.1-2.1H29.93c-1.16,0-2.1-.94-2.1-2.1v-21.17c0-1.16.94-2.1,2.1-2.1h104.21c1.16,0,2.1.94,2.1,2.1v23.27Z"/>
      <g id="kill_ask">
        <path class="cls-3" d="M68.09,68.2h-.53v3.56h.53c1.25,0,2.02-.43,2.02-1.88s-1.11-1.68-2.02-1.68Z"/>
        <path class="cls-3" d="M0,2.1v109.01c0,1.16.94,2.1,2.1,2.1h154.1c1.16,0,2.1-.94,2.1-2.1V2.1c0-1.16-.94-2.1-2.1-2.1H2.1C.94,0,0,.94,0,2.1ZM33.64,81.31c-1.26,0-2.45-.1-3.47-.34-.92-.22-1.55-1.08-1.55-2.03v-.52c0-1.34,1.25-2.38,2.55-2.05.57.14,1.16.22,1.8.22.7,0,1.47-.22,1.47-.63,0-.58-1.13-1.35-2.62-2.52-2.93-2.26-3.58-3.41-3.58-5.53,0-2.69,2.5-5.17,7.21-5.17.95,0,2.08.04,3.15.28.95.21,1.61,1.08,1.61,2.05v.49c0,1.31-1.19,2.3-2.48,2.07-.52-.1-1.06-.15-1.59-.15s-1.03.19-1.03.55c0,.5.82,1.08,1.85,1.97,3.17,2.72,3.99,3.75,3.99,6.08,0,3.85-3.9,5.22-7.31,5.24ZM59.32,72.46c0,6.04-3.15,9.14-8.49,9.14s-8.49-3.1-8.49-9.14v-7.27c0-1.16.94-2.1,2.1-2.1h2.04c1.16,0,2.1.94,2.1,2.1v8.16c0,1.59,1.06,2.69,2.24,2.69s2.24-1.11,2.24-2.69v-8.16c0-1.16.94-2.1,2.1-2.1h2.04c1.16,0,2.1.94,2.1,2.1v7.27ZM71.87,81.02c-.78,0-1.5-.43-1.86-1.13l-2.22-4.24h-.22v3.26c0,1.16-.94,2.1-2.1,2.1h-2.02c-1.16,0-2.1-.94-2.1-2.1v-13.73c0-1.16.94-2.1,2.1-2.1h4.29c3.49,0,8.44.24,8.44,6.59,0,1.35-.54,2.46-1.38,3.34-.64.68-.8,1.69-.3,2.48l1.44,2.31c.87,1.4-.14,3.22-1.79,3.22h-2.28ZM88.95,81.02h-7.86c-1.16,0-2.1-.94-2.1-2.1v-13.73c0-1.16.94-2.1,2.1-2.1h7.67c1.16,0,2.1.94,2.1,2.1v1.44c0,1.16-.94,2.1-2.1,2.1h-3.52v1.08h2.87c1.16,0,2.1.94,2.1,2.1v.24c0,1.16-.94,2.1-2.1,2.1h-2.87v1.11h3.72c1.16,0,2.1.94,2.1,2.1v1.44c0,1.16-.94,2.1-2.1,2.1ZM98.18,81.02h-1.2c-1.16,0-2.1-.94-2.1-2.1h0c0-1.16.94-2.1,2.1-2.1h1.2c1.16,0,2.1.94,2.1,2.1h0c0,1.16-.94,2.1-2.1,2.1ZM100.16,74.53h0c0,.48-.39.87-.87.87h-2.2c-1.16,0-2.1-.94-2.1-2.1v-1.7h.99c1.64,0,2.91-.67,2.91-2.09,0-1.18-.96-2.09-3.08-2.09-.33,0-.66.02-.99.06-1.25.17-2.36-.84-2.36-2.11v-.12c0-.95.64-1.77,1.56-2.04,1.16-.33,2.35-.49,3.37-.49,4.45,0,7,2.31,7,5.77-.02,3.15-1.54,4.65-3.6,5.2-.37.1-.63.44-.63.83ZM136.24,55.12v23.85c0,1.16-.94,2.1-2.1,2.1h-18.82c-1.16,0-2.1-.94-2.1-2.1v-21.75c0-1.16-.94-2.1-2.1-2.1H29.93c-1.16,0-2.1-.94-2.1-2.1v-21.17c0-1.16.94-2.1,2.1-2.1h104.21c1.16,0,2.1.94,2.1,2.1v23.27Z"/>
      </g>
      <path id="kill_inactive" class="cls-2" d="M0,2.1v109.01c0,1.16.94,2.1,2.1,2.1h154.1c1.16,0,2.1-.94,2.1-2.1V2.1c0-1.16-.94-2.1-2.1-2.1H2.1C.94,0,0,.94,0,2.1ZM136.24,55.12v23.85c0,1.16-.94,2.1-2.1,2.1h-18.82c-1.16,0-2.1-.94-2.1-2.1v-21.75c0-1.16-.94-2.1-2.1-2.1H29.93c-1.16,0-2.1-.94-2.1-2.1v-21.17c0-1.16.94-2.1,2.1-2.1h104.21c1.16,0,2.1.94,2.1,2.1v23.27Z"/>
    </g>
  </g>
</svg>