<?xml version="1.0" encoding="UTF-8"?>
<svg id="Layer_2" data-name="Layer 2" xmlns="http://www.w3.org/2000/svg" viewBox="0 0 70.44 480.71">
  <defs>
    <style>
      .cls-1 {
        stroke-width: 2px;
      }

      .cls-1, .cls-2 {
        fill: #4d4d4d;
        stroke: #3d3d3d;
        stroke-miterlimit: 10;
      }

      .cls-3 {
        fill: #3d3d3d;
      }
    </style>
  </defs>
  <g id="Checkbox">
    <g id="Meter_and_Limiter">
      <path id="Meter" class="cls-3" d="M54.3,462.98V40.34c0-17.88,16.14-17.88,16.14-17.88H0c8.96,3.31,16.14,0,16.14,17.73v422.64c0,17.88-16.14,17.88-16.14,17.88h70.44c-8.96-3.31-16.14,0-16.14-17.73ZM34.44,476.86c-2.57-1.92-4.14-5.61-4.14-13.88V40.34c0-7.17,2.6-11.46,5.7-14.03,2.57,1.92,4.14,5.61,4.14,13.88v422.64c0,7.17-2.6,11.46-5.7,14.03Z"/>
      <g id="Limiter_indicator">
        <path class="cls-2" d="M63.93,15.91c-.38-1.22-1.05-3.71-1.18-7.13-.15-3.98.53-7,.87-8.28H6.03c.36,1.42.88,3.9.97,7.13.11,3.97-.48,7.04-.83,8.56,2.28-.04,55.21-.22,57.76-.27Z"/>
        <path class="cls-1" d="M57.49,15.91c-.36-1.22-.99-3.71-1.11-7.13-.14-3.98.5-7,.82-8.28"/>
        <path class="cls-2" d="M12.27,16.18c.33-1.52.89-4.58.78-8.56-.09-3.23-.57-5.71-.91-7.13"/>
      </g>
    </g>
  </g>
</svg>