<?xml version="1.0" encoding="UTF-8"?>
<svg id="Layer_2" data-name="Layer 2" xmlns="http://www.w3.org/2000/svg" viewBox="0 0 17.22 22.55">
  <defs>
    <style>
      .cls-1 {
        fill: #f4f2f2;
        stroke: #000;
        stroke-miterlimit: 10;
      }
    </style>
  </defs>
  <g id="xy_button">
    <g>
      <path d="M0,11.37c5.74-.68,11.49-.69,17.22,0-5.74.69-11.49.68-17.22,0H0Z"/>
      <path id="thumb" class="cls-1" d="M8.77,3.13c.21,1.21.59,2.76,1.32,4.47.7,1.63,1.52,2.93,2.23,3.9-.59.84-1.22,1.84-1.79,3.02-.93,1.91-1.46,3.68-1.76,5.1-.17-1.3-.55-3.04-1.4-4.93-.58-1.29-1.23-2.35-1.83-3.18.67-1,1.42-2.32,2.05-3.95.65-1.68,1-3.2,1.18-4.42Z"/>
    </g>
  </g>
</svg>